<svg xmlns="http://www.w3.org/2000/svg"
         viewBox="0 0 83.9 68.26">
        <defs></defs>
        <title>training-center-3</title>
        <g id="Слой_2"
           data-name="Слой 2">
            <g id="Слой_1-2"
               data-name="Слой 1">
                <path fill='currentColor'
                      d="M73.44,9.12V1.34a1.34,1.34,0,0,0-.38-1,1.34,1.34,0,0,0-1-.38H1.34a1.34,1.34,0,0,0-1,.38,1.34,1.34,0,0,0-.38,1V57.7l.19,1.63A11.23,11.23,0,0,0,1.34,63a9.59,9.59,0,0,0,3.08,3.64,10.78,10.78,0,0,0,6,1.64H76l1.25-.2A8.54,8.54,0,0,0,80,66.82a7.88,7.88,0,0,0,2.69-3.08,13.41,13.41,0,0,0,1.24-6V11.81a1.27,1.27,0,0,0-.38-1,1.3,1.3,0,0,0-1-.39H74.78a1.3,1.3,0,0,1-1-.38A1.34,1.34,0,0,1,73.44,9.12ZM5.18,57.7V6.62a1.3,1.3,0,0,1,.39-1,1.46,1.46,0,0,1,1-.48h60.2a1.19,1.19,0,0,1,1,.48,1.19,1.19,0,0,1,.48,1V57.7a8.34,8.34,0,0,0,1,4.12.87.87,0,0,1,.09.87c-.06.19-.29.29-.67.29H10.46a5.24,5.24,0,0,1-3.07-.87,3.94,3.94,0,0,1-1.53-1.82,6.77,6.77,0,0,1-.58-1.73Zm6.63-42H61.54a1.3,1.3,0,0,1,1,.39,1.17,1.17,0,0,1,.48,1v2.49a1.17,1.17,0,0,1-.48,1,1.3,1.3,0,0,1-1,.39H11.81a1.33,1.33,0,0,1-1.35-1.35V17.09a1.33,1.33,0,0,1,1.35-1.35ZM40.7,47.23H56.35a1.33,1.33,0,0,1,1.35,1.35v2.49a1.64,1.64,0,0,1-.39,1.06,1.3,1.3,0,0,1-1,.38H40.7a1.34,1.34,0,0,1-1-.38,1.68,1.68,0,0,1-.38-1.06V48.58a1.32,1.32,0,0,1,1.34-1.35Zm0-10.56H61.54A1.7,1.7,0,0,1,63,38.11v2.5a1.19,1.19,0,0,1-.48,1,1.34,1.34,0,0,1-1,.38H40.7a1.3,1.3,0,0,1-1.34-1.34v-2.5a1.34,1.34,0,0,1,.38-1A1.19,1.19,0,0,1,40.7,36.67Zm0-10.46H61.54a1.19,1.19,0,0,1,1,.48,1.09,1.09,0,0,1,.48.86v2.59a1.17,1.17,0,0,1-.48,1,1.3,1.3,0,0,1-1,.39H40.7a1.32,1.32,0,0,1-1.34-1.35V27.55a1.49,1.49,0,0,1,1.34-1.34Zm-28.89,0H32.74a1.1,1.1,0,0,1,.86.48,1.09,1.09,0,0,1,.48.86V51.07a1.47,1.47,0,0,1-.48,1.06,1.21,1.21,0,0,1-.86.38H11.81a1.3,1.3,0,0,1-1-.38,1.64,1.64,0,0,1-.39-1.06V27.55a1.17,1.17,0,0,1,.39-.86A1.17,1.17,0,0,1,11.81,26.21Z" />
                <rect class="cls-1"
                      x="9.88"
                      y="25.81"
                      width="25"
                      height="27"
                      rx="2"
                      ry="2" />
            </g>
        </g>
</svg>
