    <svg xmlns="http://www.w3.org/2000/svg"
         viewBox="0 0 84 70.8">
        <defs></defs>
        <title>training-center-1</title>
        <g id="Слой_2"
           data-name="Слой 2">
            <g id="Слой_1-2"
               data-name="Слой 1">
                <circle class="cls-1"
                        cx="15.41"
                        cy="7.78"
                        r="3.5" />
                <path class="cls-2"
                      d="M83.9,4.8a4.71,4.71,0,0,0-.38-2.11C82.75.9,81.22,0,78.91,0H5.38A5.9,5.9,0,0,0,1.25,1.25,5.53,5.53,0,0,0,0,5.28V65.86a4.82,4.82,0,0,0,1.25,3.55,5.35,5.35,0,0,0,3.93,1.34H63.84q10.08.1,15.17,0a4.63,4.63,0,0,0,3.55-1.34A4.48,4.48,0,0,0,83.9,66Q84.1,35.33,83.9,4.8Zm-60.76.77a2,2,0,0,1,1.63.57,2.3,2.3,0,0,1,.67,1.64A2,2,0,0,1,23.23,10,2.66,2.66,0,0,1,21.5,9.5,2.63,2.63,0,0,1,21,7.78C21,6.3,21.73,5.57,23.14,5.57Zm-7.68,0a2,2,0,0,1,1.63.57,2.28,2.28,0,0,1,.48,1.64,2.63,2.63,0,0,1-.48,1.72,2.27,2.27,0,0,1-1.63.48,2.65,2.65,0,0,1-1.73-.48,2.63,2.63,0,0,1-.48-1.72A2,2,0,0,1,15.46,5.57Zm-7.78,0A2,2,0,0,1,9.89,7.78,1.86,1.86,0,0,1,7.78,10,2.65,2.65,0,0,1,6.05,9.5a2.92,2.92,0,0,1-.58-1.63C5.47,6.34,6.21,5.57,7.68,5.57Zm74.11,60a2.49,2.49,0,0,1-3,3H5a3,3,0,0,1-2.21-.67,3.41,3.41,0,0,1-.57-2.21V15.55H81.79Z" />
            </g>
        </g>
    </svg>
