    <svg xmlns="http://www.w3.org/2000/svg"
         viewBox="0 0 79.74 96.03">
        <defs></defs>
        <title>training-center-2</title>
        <g id="Слой_2"
           data-name="Слой 2">
            <g id="Слой_1-2"
               data-name="Слой 1">
                <circle class="cls-1"
                        cx="41.51"
                        cy="32.21"
                        r="15.5" />
                <path class="cls-2" fill='currentColor'
                      d="M40.55,95.93H36.32q-7.09-.11-10.65.09c-1.47.07-2.43-.16-2.88-.67s-.45-1.47-.19-2.88A50.62,50.62,0,0,0,22.12,76,6.58,6.58,0,0,0,21,73.08a7,7,0,0,0-2.3-2.21,40.42,40.42,0,0,1-14.59-16,36.85,36.85,0,0,1-3.94-20A37.66,37.66,0,0,1,7.62,15.09Q20.29-1.8,44,.21A43.91,43.91,0,0,1,60.8,5,44.58,44.58,0,0,1,74.53,16.15a19.76,19.76,0,0,1,2.88,4.61,5.47,5.47,0,0,1,.39,2.69,3.12,3.12,0,0,1-1.73,2A1.72,1.72,0,0,0,75,26.61a3.64,3.64,0,0,0,.1,1.35l.09.38q1.15,5.19,1.83,7.78a11.66,11.66,0,0,1,.38,3.36,4.79,4.79,0,0,1-1.34,3.07,1.3,1.3,0,0,0-.39,1,4.13,4.13,0,0,0,.2,1l3.64,12a3.46,3.46,0,0,1,.1,2.11c-.19.51-.74.87-1.63,1.06a2.14,2.14,0,0,0-1.63,1.15,3.72,3.72,0,0,0,0,2.11A35.23,35.23,0,0,1,77,72.31a6,6,0,0,1-1.63,4.32,7.1,7.1,0,0,1-4.52,1.63l-3.45.19c-3.27.2-5.73.32-7.39.39a2.52,2.52,0,0,0-1.83.57,2.19,2.19,0,0,0-.29,1.83l.29,5.18q.2,4.52.39,6.82a2.71,2.71,0,0,1-.39,2.21A3.17,3.17,0,0,1,56,96q-3.84-.09-11.61-.09ZM28.26,57.14A1,1,0,0,1,29,57a1.69,1.69,0,0,1,.77.48,2.34,2.34,0,0,0,.57.48l.58.38a2.52,2.52,0,0,0,1.15.48,1.35,1.35,0,0,0,1.25-.57q1.24-1.55-.87-3.07L23.27,48a4,4,0,0,0-1.44-.67,1.49,1.49,0,0,0-1.35.58,1.66,1.66,0,0,0-.28,1.44A2.78,2.78,0,0,0,21,50.71a11.16,11.16,0,0,0,1.35,1.06,5.14,5.14,0,0,1,2,1.92.83.83,0,0,1-.67.38,4.08,4.08,0,0,1-.77-.38,1,1,0,0,0-.67-.39q-.2-.09-.48.39c-.45.7-.35,1.69.29,3A3.91,3.91,0,0,0,26,58.87a3.4,3.4,0,0,0,1.63-.29A1.31,1.31,0,0,0,28.26,57.14ZM39.11,18.36a11.32,11.32,0,0,0-8.35,3.26,11,11,0,0,0-3.08,8.26,14,14,0,0,0,.29,2.3,14.09,14.09,0,0,1,.29,2.21,5.18,5.18,0,0,1-.19,2,7.15,7.15,0,0,0-.29,4.41,5.62,5.62,0,0,0,2.11,2.88,30,30,0,0,0,3.65,1.92l2,1.06c.64.38,1.15.35,1.53-.1A11.4,11.4,0,0,1,40.16,44a39.45,39.45,0,0,1,3.56-1.73c1.47-.7,2.56-1.25,3.26-1.63a10.61,10.61,0,0,0,5.38-7,11.5,11.5,0,0,0-.87-7.29,13.55,13.55,0,0,0-5-5.76A13.11,13.11,0,0,0,39.11,18.36ZM34.5,54.26c1,0,1.54-.35,1.73-1a2.31,2.31,0,0,0-1.06-2.5q-3-2.31-9.12-6.91L26,43.7a4,4,0,0,0-1.44-.86,1.8,1.8,0,0,0-1.73,2.49,4.27,4.27,0,0,0,1.34,1.35l1.63,1.25L33,53.4A16.88,16.88,0,0,0,34.5,54.26ZM52.64,11.54a.75.75,0,0,0-.28-.67,2.29,2.29,0,0,0-.68-.58l-.38-.19c-.64-.51-1.18-.35-1.63.48s-1.09,2-2.11,3.65c-.45.7-.26,1.22.57,1.54a4.12,4.12,0,0,1,.58.38l.57.29a.83.83,0,0,0,.58-.29c.45-.64,1-1.57,1.73-2.78Zm8.07,8.26a4.49,4.49,0,0,1-.67-1,1.68,1.68,0,0,0-.68-.87c-.25-.12-.64,0-1.15.29-1,.58-2.05,1.19-3.26,1.83a1.68,1.68,0,0,0-.77,1,1.71,1.71,0,0,0,.29,1.15,2.74,2.74,0,0,0,.86.86.9.9,0,0,0,1-.19,7.53,7.53,0,0,1,1.63-1,11.89,11.89,0,0,0,1.54-.86A5.92,5.92,0,0,0,60.71,19.8ZM28.93,9.53a3.77,3.77,0,0,1-.77.48,2.29,2.29,0,0,0-1,1,7.13,7.13,0,0,0,1.16,2.59A7,7,0,0,0,30.08,16a1.48,1.48,0,0,0,1.16-.1,5.54,5.54,0,0,0,.67-.57c.32-.32.45-.61.38-.87a2.17,2.17,0,0,0-.48-1l-.19-.29L31,12.12c-.32-.64-.57-1.12-.76-1.44A3.85,3.85,0,0,0,28.93,9.53Zm12.48.76a3,3,0,0,1,0-1,3.09,3.09,0,0,0,0-1.15,1.65,1.65,0,0,0-.48-.87,1.39,1.39,0,0,0-1.15-.38q-.77,0-1,.48a8.72,8.72,0,0,0-.1,5.85.89.89,0,0,0,1,.58,1.73,1.73,0,0,0,1.25-.38,1.57,1.57,0,0,0,.58-1,6.69,6.69,0,0,0-.1-1A3.66,3.66,0,0,1,41.41,10.29ZM59.84,29.21h-2a1,1,0,0,0-1,.48,3.55,3.55,0,0,0-.1,1c0,.77.26,1.25.77,1.44A3.19,3.19,0,0,0,59,32h.19a3.64,3.64,0,0,1,1.35.1,4.54,4.54,0,0,0,1.53.09c.51-.13.87-.57,1.06-1.34a1.73,1.73,0,0,0,0-1.15q-.2-.48-1-.48Z" />
            </g>
        </g>
    </svg>
