    <svg xmlns="http://www.w3.org/2000/svg"
         viewBox="0 0 84.03 69.09">
        <defs></defs>
        <title>training-center-4</title>
        <g id="Слой_2"
           data-name="Слой 2">
            <g id="Слой_1-2"
               data-name="Слой 1">
                <path class="cls-2"
                      d="M28.45,33.82a5,5,0,0,0-3.75,1.64,5.09,5.09,0,0,0-1.53,3.74,5.24,5.24,0,0,0,5.28,5.28,5.06,5.06,0,0,0,3.74-1.54,5.11,5.11,0,0,0,0-7.48A4.94,4.94,0,0,0,28.45,33.82Zm52,5.38a14.11,14.11,0,0,1,.1-2.11l3.26-26.4a.91.91,0,0,0-.19-.77,1.21,1.21,0,0,0-.58-.67L59.07.13A1.94,1.94,0,0,0,58,0a2.06,2.06,0,0,0-.87.19L28,14.14a2.45,2.45,0,0,1-2,.1L.8,3.58a.54.54,0,0,0-.67.1.58.58,0,0,0-.1.58L3.39,32.58a5.76,5.76,0,0,1,0,2.11L.13,62.53a1.21,1.21,0,0,0,1,1.25l26.69,5a5.76,5.76,0,0,0,2.11,0l27.26-5.19a6.23,6.23,0,0,1,2.11,0l23.81,5.48a.81.81,0,0,0,.67-.1.73.73,0,0,0,.29-.67ZM57.92,3.87a.75.75,0,0,1,.29-.67.81.81,0,0,1,.77,0l21,7.87a1.21,1.21,0,0,1,.58.67.91.91,0,0,1,.19.77L79.52,22.88a.88.88,0,0,1-.48.67.81.81,0,0,1-.67.1L57.54,18.37a1.28,1.28,0,0,1-.77-.48.88.88,0,0,1-.19-.77ZM29.5,16.54,54,4.83a.64.64,0,0,1,.68,0c.19.07.25.26.19.58L53.79,16.35a1.23,1.23,0,0,1-.38.87,1,1,0,0,1-.77.28L38.91,19.33c-.7.13-1,.22-1,.29l-.1.19a29.34,29.34,0,0,1-1,3.26,49.12,49.12,0,0,1-2.3,5.76.9.9,0,0,1-.68.48,1.07,1.07,0,0,1-.76-.09,8.43,8.43,0,0,0-2.21-.68A1.52,1.52,0,0,1,29.7,27.3l-1.06-9.22a1.4,1.4,0,0,1,.1-.86A1.56,1.56,0,0,1,29.5,16.54Zm24,3.08-.86,12.76a2.13,2.13,0,0,1-.38.87,1.48,1.48,0,0,1-.77.38L39.78,35.36a1.43,1.43,0,0,1-.87-.1,1.81,1.81,0,0,1-.57-.67A10.94,10.94,0,0,0,35.74,31a1.29,1.29,0,0,1-.38-1.63,37,37,0,0,0,3.07-8,1.24,1.24,0,0,1,.48-.67,1.65,1.65,0,0,1,.87-.48l12.76-1.63a.77.77,0,0,1,1,1ZM17.12,13.57l7.58,3.17a1.14,1.14,0,0,1,.68.57,1.8,1.8,0,0,1,.48.87l1,9.12a1,1,0,0,1-.2.86,1,1,0,0,1-.67.38,12.1,12.1,0,0,0-4.51,2.31,9.83,9.83,0,0,0-3,4,1.6,1.6,0,0,1-.67.67,1.09,1.09,0,0,1-.77.1l-9.6-1.44a1.77,1.77,0,0,1-.86-.48A1.3,1.3,0,0,1,6.27,33l-1-8.74a1,1,0,0,1,.29-.76.83.83,0,0,1,.67-.39q5.19-.77,7.68-3.74a9.93,9.93,0,0,0,2.11-5.19q.11-.48.39-.57A.62.62,0,0,1,17.12,13.57ZM3.39,8.67c-.06-.32,0-.51.19-.57a.64.64,0,0,1,.68,0l9.88,4.12a1.77,1.77,0,0,1,.68.68,1.15,1.15,0,0,1,.19.86,8.5,8.5,0,0,1-1.92,4.9,9.64,9.64,0,0,1-6.91,3.26,1.08,1.08,0,0,1-.87-.19A1.44,1.44,0,0,1,4.93,21ZM11,62.72,4.16,61.47a1.37,1.37,0,0,1-.67-.38,1.44,1.44,0,0,1-.29-.87L5.89,37.86a1,1,0,0,1,.38-.68A.91.91,0,0,1,7,37l9.5,1.44c.71.13,1.06.29,1.06.48v.29a10.34,10.34,0,0,0,1.73,5.86,1.25,1.25,0,0,1,.09.86.91.91,0,0,1-.28.67l-4.42,3.46a2.59,2.59,0,0,0-1,1.73L12.22,61.86a1.18,1.18,0,0,1-.48.67A.8.8,0,0,1,11,62.72Zm15,1.73a1.22,1.22,0,0,1-.48.77.81.81,0,0,1-.67.09l-10.66-2a1.49,1.49,0,0,1-.76-.39,1.3,1.3,0,0,1-.1-.86l1.44-9.7a3.24,3.24,0,0,1,.38-.86,2.49,2.49,0,0,1,.68-.87l4-3.26a1.65,1.65,0,0,1,.77-.19,1.35,1.35,0,0,1,.86.29,10.82,10.82,0,0,0,5,2.4,1.15,1.15,0,0,1,.67.48.77.77,0,0,1,.2.76ZM19.71,39.2a8.32,8.32,0,0,1,2.5-6.14,8.51,8.51,0,0,1,6.24-2.6,8.18,8.18,0,0,1,6.14,2.6,8.17,8.17,0,0,1,2.59,6.14,8.36,8.36,0,0,1-2.59,6.14,8.18,8.18,0,0,1-6.14,2.6,8.86,8.86,0,0,1-8.74-8.74Zm16.8,25.44-6.62,1.25-1.15.19c-.07,0-.1-.35-.1-1.06l1.54-14.11a.92.92,0,0,1,.28-.67,2.6,2.6,0,0,1,.87-.58,11,11,0,0,0,5.76-3.84,10.32,10.32,0,0,0,2.3-6.62v-.48c0-.13.1-.22.29-.29a2.26,2.26,0,0,1,.67-.29l11.43-1.72a.77.77,0,0,1,.76.19,1.45,1.45,0,0,1,.39.77l.86,9.31a.88.88,0,0,1-.19.77,1.44,1.44,0,0,1-.77.38q-8.05.57-12,5.38a14.18,14.18,0,0,0-2.78,5.37,16.6,16.6,0,0,0-.48,4.8,1.2,1.2,0,0,1-.39.87A1.37,1.37,0,0,1,36.51,64.64Zm17.67-3.36L39.68,64a.66.66,0,0,1-.77-.1,1,1,0,0,1-.29-.77,13.79,13.79,0,0,1,3.08-9.21q3.64-4.43,11.23-5a1.13,1.13,0,0,1,1.25,1l1,10.17a1.44,1.44,0,0,1-.29.87A1.41,1.41,0,0,1,54.18,61.28ZM55.33,32l1-11.71a1,1,0,0,1,.38-.67.88.88,0,0,1,.77-.2L78.18,24.7a1.28,1.28,0,0,1,.67.48,1.44,1.44,0,0,1,.29.87L78,34.78a1.2,1.2,0,0,1-.48.77.81.81,0,0,1-.67.1l-20.45-2.5a1.21,1.21,0,0,1-.76-.29A1.34,1.34,0,0,1,55.33,32ZM79.81,65.5,68.38,62.82a2.29,2.29,0,0,1-.76-.39,2,2,0,0,1-.39-.86L65.7,46.21a.79.79,0,0,1,.19-.77.87.87,0,0,1,.77-.19l7.1.86a2.66,2.66,0,0,0,.77-.09c.19-.13.29-.26.29-.39s-.13-.25-.39-.38a2,2,0,0,0-.77-.29l-8.25-1a.67.67,0,0,0-.67.19,1,1,0,0,0-.29.77l1.73,16.32a1,1,0,0,1-.29.77.78.78,0,0,1-.67.09L59,60.8a1.59,1.59,0,0,1-.77-.48,2.24,2.24,0,0,1-.39-.86L55.62,36.9c0-.71,0-1.06.09-1.06l1.15.1,19.68,2.49a1.28,1.28,0,0,1,.77.48,1.1,1.1,0,0,1,.39.77l3,25a.65.65,0,0,1-.19.67A.59.59,0,0,1,79.81,65.5Z" />
                <circle class="cls-1"
                        cx="28.64"
                        cy="39.2"
                        r="6" />
            </g>
        </g>
    </svg>
