    <svg xmlns="http://www.w3.org/2000/svg"
         viewBox="0 0 82.76 84.05">
        <defs></defs>
        <title>training-center-5</title>
        <g id="Слой_2"
           data-name="Слой 2">
            <g id="Слой_1-2"
               data-name="Слой 1">
                <path class="cls-2"
                      d="M78,50.35V30.87l-7.1,1a6,6,0,0,0-3.36-5.09l-.29-4.13q-.67-12.48-7.1-17.86Q54.5-.05,43.27.15L41.45.24A21.78,21.78,0,0,1,37.7.15c-3.39-.52-6.91.32-10.56,2.49a33.6,33.6,0,0,0-8.25,7.3,17.27,17.27,0,0,0-3.55,9.5,34.41,34.41,0,0,0,.28,6.72v.39q-3.26,1.14-3.74,5.18l-6.24-.86V49.78a7.39,7.39,0,0,0-3.07,2.88,7.53,7.53,0,0,0-1.15,4.13A8,8,0,0,0,2.57,61,7,7,0,0,0,5.64,63.7V79.25l36.19,4.8L78,79.25v-16a7.92,7.92,0,0,0,2.31-2.69,7.57,7.57,0,0,0,1-3.74,7.06,7.06,0,0,0-1-3.65A7.73,7.73,0,0,0,78,50.35ZM40.2,81.07,9,77V64.37a6.8,6.8,0,0,0,4.7-2.3,7.57,7.57,0,0,0,2-5.28,7.22,7.22,0,0,0-2-5.19A6.64,6.64,0,0,0,9,49.2V34l31.2,4.13ZM20.71,32.88v-.29a21.93,21.93,0,0,1-.19-2.4,21.31,21.31,0,0,1,1.63-5.08,13.61,13.61,0,0,1,3.07-4,12.92,12.92,0,0,1,4.42-2.59,2,2,0,0,1,2.21.67,1.5,1.5,0,0,1,.29,1.16,1.46,1.46,0,0,1-.48,1.05l-.2.19a1.38,1.38,0,0,0-.28,1.73,1.47,1.47,0,0,0,1.63.67,46.08,46.08,0,0,0,17.85-6.62,6,6,0,0,1,4.8-1,5.28,5.28,0,0,1,2.31,1,5.6,5.6,0,0,1,1.73,1.73l.28.38a17.73,17.73,0,0,1,2.88,9.89,23.5,23.5,0,0,1-.19,3.55L41.83,35.67ZM74.76,49.2l-.58-.09a6.62,6.62,0,0,0-5.08,2.3,7.65,7.65,0,0,0-2,5.38,8,8,0,0,0,2,5.47,6.77,6.77,0,0,0,5.08,2.21l.58-.1V77l-31.3,4.12V38.16L74.76,34Z" />
                <circle class="cls-1"
                        cx="8"
                        cy="56.55"
                        r="8" />
                <circle class="cls-1"
                        cx="74.76"
                        cy="56.55"
                        r="8" />
            </g>
        </g>
    </svg>
