    <svg class="bi bi-journal-bookmark-fill" fill="currentColor" version="1.1" viewBox="0 0 16 16" xmlns="http://www.w3.org/2000/svg">
        <path d="M6 1h6v7a.5.5 0 0 1-.757.429L9 7.083 6.757 8.43A.5.5 0 0 1 6 8V1z" fill="var(--emk-brand-color)" fill-rule="evenodd" />
        <path fill='currentColor' d="M3 0h10a2 2 0 0 1 2 2v12a2 2 0 0 1-2 2H3a2 2 0 0 1-2-2v-1h1v1a1 1 0 0 0 1 1h10a1 1 0 0 0 1-1V2a1 1 0 0 0-1-1H3a1 1 0 0 0-1 1v1H1V2a2 2 0 0 1 2-2z" stroke-width=".9" />
        <path fill='currentColor' d="M1 5v-.5a.5.5 0 0 1 1 0V5h.5a.5.5 0 0 1 0 1h-2a.5.5 0 0 1 0-1H1zm0 3v-.5a.5.5 0 0 1 1 0V8h.5a.5.5 0 0 1 0 1h-2a.5.5 0 0 1 0-1H1zm0 3v-.5a.5.5 0 0 1 1 0v.5h.5a.5.5 0 0 1 0 1h-2a.5.5 0 0 1 0-1H1z" />
        <path 
            d="m9.0658 12.591c-0.13941-0.0093-0.30017-0.03373-0.42696-0.07045-0.023752-0.0069-0.12209-0.04303-0.1471-0.0545-0.44142-0.20447-0.74893-0.65082-0.74893-1.1687 0-0.71026 0.57785-1.2888 1.2886-1.2888 0.70441 0 1.2784 0.56867 1.2882 1.2709h0.46551c-0.0099-0.95879-0.79253-1.7358-1.7537-1.7358-0.96694 0-1.754 0.78656-1.754 1.7537 0 0.66677 0.37498 1.2467 0.92403 1.5429 0.099138 0.05244 0.24142 0.10648 0.28973 0.12128 0.15651 0.04659 0.34859 0.07757 0.51956 0.09053 0.05806 0.0044 0.26081 0.0067 0.3199 0.0069h3.2057v-0.4637h-3.2003c-0.04257 0-0.22857-0.0016-0.27022-0.0044m0.27022-0.72804c-0.03385 0-0.2109-0.0012-0.2436-0.0039-0.055421-0.0047-0.13574-0.01296-0.18738-0.02478-0.058289-0.0156-0.11302-0.03626-0.13769-0.0498-0.17292-0.09352-0.29076-0.27642-0.29076-0.48708 0-0.30648 0.24819-0.55501 0.55478-0.55501 0.30017 0 0.54423 0.23878 0.55398 0.53711h0.44727c-0.0094-0.54503-0.45369-0.98426-1.0012-0.98426-0.55363 0-1.0024 0.44864-1.0024 1.0022 0 0.39036 0.22375 0.72747 0.54962 0.89259 0.050143 0.02937 0.14446 0.06012 0.17131 0.06712 0.092024 0.02421 0.2156 0.04073 0.31589 0.04808 0.03706 0.0031 0.21858 0.0045 0.25691 0.0047v6.77e-4h3.2135v-0.44756zm-2.3455 1.1944h-0.46861v-3.0477h-0.68479v-0.46873h1.1534zm-1.6679-2.8135v0.45071h0.51451v2.3628h0.45025v-2.8135z"
            fill="#d91920"
        />
    </svg>
