
<svg xmlns="http://www.w3.org/2000/svg" viewBox="0 0 24 16">
<defs>
</defs>
<g id="Слой_2" data-name="Слой 2">
<g id="Слой_1-2" data-name="Слой 1">
<path class="cls-1" d="M13.17,5.72a2.92,2.92,0,1,0,2.91,2.92A2.92,2.92,0,0,0,13.17,5.72Zm1.56,4.53-2-1.19V6.56h.63V8.75l1.66,1Z"/>
<path class="cls-1" d="M19.35,6a7.49,7.49,0,0,0-14-2A6,6,0,0,0,6,16H19a5,5,0,0,0,.35-10ZM10.92,4l.53.64L9.54,6.24,9,5.6Zm2.25,8.39a3.75,3.75,0,1,1,3.75-3.75A3.74,3.74,0,0,1,13.17,12.39ZM17,6l-.2.25L14.88,4.64,15.42,4,17,5.33Z"/></g></g></svg>