      <svg xmlns="http://www.w3.org/2000/svg"
           viewBox="0 0 1691 1135"
           version="1.1">
            <path d=""
                  stroke="none"
                  fill="#f48424"
                  fill-rule="evenodd" />
            <path d="M 809 1.039 C 771.282 3.085, 748.776 5.047, 711.349 9.553 C 688.817 12.266, 690.748 12.002, 667.500 15.547 C 528.473 36.745, 397.440 82.391, 289.580 147.199 C 269.981 158.975, 246.886 173.860, 236.159 181.631 C 222.119 191.801, 200.883 207.851, 195.425 212.418 C 192.084 215.213, 187.159 219.300, 184.481 221.500 C 162.028 239.947, 132.389 269.170, 114 290.991 C 111.525 293.928, 109.048 296.819, 108.495 297.415 C 106.030 300.077, 87.878 323.065, 85.085 327.063 C 83.380 329.503, 79.428 335.100, 76.303 339.500 C 56.417 367.494, 33.131 413.216, 21.300 447.500 C 14.796 466.346, 7.976 493.267, 4.454 514 C 0.493 537.314, -1.086 572.359, 0.915 592.542 C 5.016 633.914, 12.650 665.853, 27.669 704.485 C 38.572 732.528, 60.509 773.535, 76.743 796.220 C 79.909 800.645, 83.791 806.118, 85.368 808.383 C 89.566 814.407, 106.108 834.917, 116.486 846.964 C 191.005 933.462, 311.361 1012.349, 444.500 1061.960 C 532.139 1094.616, 627.103 1116.568, 727.500 1127.379 C 753.505 1130.179, 760.284 1130.775, 794 1133.227 C 816.214 1134.843, 876.566 1134.829, 897.500 1133.203 C 906.300 1132.519, 916.875 1131.716, 921 1131.418 C 953.403 1129.075, 999.894 1123.486, 1033.500 1117.894 C 1144.572 1099.411, 1243.712 1068.572, 1333.500 1024.573 C 1355.476 1013.804, 1360.727 1011.015, 1387 996.162 C 1421.046 976.914, 1461.109 950.071, 1489.500 927.484 C 1516.462 906.034, 1550.695 874.061, 1569.784 852.500 C 1625.734 789.303, 1661.061 725.652, 1679.398 655 C 1684.232 636.376, 1689.937 602.276, 1689.980 591.750 C 1689.991 589.138, 1690.450 587, 1691 587 C 1691.635 587, 1691.994 579.427, 1691.985 566.250 C 1691.976 554.837, 1691.596 546.089, 1691.139 546.810 C 1690.642 547.593, 1690.044 544.405, 1689.652 538.883 C 1687.990 515.470, 1680.698 481.146, 1671.299 452.500 C 1656.342 406.915, 1628.539 355.319, 1598.297 317.023 C 1584.423 299.454, 1578.905 292.829, 1567.045 279.505 C 1556.653 267.830, 1524.193 236.522, 1509.922 224.410 C 1477.535 196.922, 1443.559 172.598, 1405.687 149.786 C 1258.756 61.284, 1086.136 12.121, 883.500 1.065 C 865.754 0.097, 826.629 0.083, 809 1.039 M 795 67.076 C 774.308 67.935, 753.700 69.028, 749.500 69.490 C 747.850 69.672, 742.900 70.106, 738.500 70.454 C 728.954 71.210, 690.765 74.882, 686.500 75.454 C 684.850 75.675, 681.475 76.113, 679 76.427 C 564.336 90.974, 465.356 116.624, 374 155.466 C 332.485 173.117, 275.588 203.847, 241 227.298 C 144.711 292.583, 82.498 365.915, 48.675 454 C 35.249 488.964, 29.377 514.845, 26.879 550.067 C 24.598 582.242, 28.908 619.787, 38.527 651.521 C 65.880 741.761, 119.830 815.918, 207.518 883.808 C 216.525 890.782, 242.435 908.762, 254.453 916.380 C 341.313 971.433, 439.597 1011.071, 552 1036.381 C 607.070 1048.781, 674.140 1059.286, 725 1063.478 C 824.072 1071.645, 909.716 1070.406, 1004 1059.441 C 1107.902 1047.358, 1212.978 1021.779, 1295.577 988.460 C 1346.852 967.778, 1401.515 939.411, 1446.500 910.141 C 1451.588 906.830, 1485.333 882.826, 1486 882.043 C 1486.275 881.720, 1490.773 878.091, 1495.997 873.978 C 1525.771 850.532, 1561.111 814.878, 1584.192 785 C 1619.827 738.869, 1648.461 677.643, 1658.848 625.366 C 1663.264 603.141, 1664.372 591.713, 1664.408 568 C 1664.473 525.605, 1657.555 491.787, 1639.755 447.500 C 1594.667 335.316, 1498.404 242.961, 1352.500 171.907 C 1268.249 130.877, 1174.401 102.265, 1064.500 84.101 C 1027.196 77.935, 1000.471 74.751, 942.500 69.567 C 909.942 66.655, 835.472 65.398, 795 67.076 M 326.936 384.447 C 284.594 389.195, 247.640 404.065, 216 429.083 C 205.043 437.748, 202.411 440.556, 203.689 442.221 C 205.549 444.642, 225.311 469.501, 226.034 470.329 C 226.432 470.785, 229.625 468.511, 233.129 465.275 C 266.042 434.885, 310.534 418.761, 354 421.472 C 399.198 424.292, 432.025 445.496, 450.400 483.741 C 458.031 499.625, 463.861 521.123, 465.586 539.745 L 466.257 546.989 376.379 547.245 L 286.500 547.500 286.228 566.250 L 285.956 585 375.978 585 L 466 585 465.994 588.750 C 465.976 600.300, 460.445 625.421, 454.478 641.059 C 448.305 657.234, 437.348 673.985, 426.365 684.038 C 393.267 714.333, 336.354 722.325, 284.500 703.959 C 265.060 697.074, 244.075 684.222, 228.057 669.392 L 222.187 663.958 210.130 679.041 L 198.074 694.125 203.287 698.946 C 231.419 724.959, 271.913 743.317, 315 749.592 C 327.632 751.432, 355.518 751.992, 371 750.718 C 405.218 747.902, 440.243 737.635, 461.432 724.210 C 473.337 716.667, 476.778 714.306, 481.894 710.164 C 494.102 700.282, 507.966 684.245, 516.352 670.304 C 544.513 623.491, 549.684 550.113, 528.953 491.500 C 513.867 448.846, 479.578 414.512, 435.127 397.548 C 423.002 392.921, 399.118 387.104, 385.500 385.461 C 382.750 385.129, 379.375 384.656, 378 384.410 C 371.416 383.231, 337.556 383.256, 326.936 384.447 M 613 567.513 L 613 742.026 647.750 741.763 L 682.500 741.500 682.754 602.681 L 683.007 463.862 685.104 464.181 C 686.686 464.422, 688.002 466.467, 690.458 472.500 C 692.249 476.900, 696.301 486.800, 699.464 494.500 C 706.896 512.596, 717.959 539.548, 723.680 553.500 C 726.161 559.550, 731.914 573.500, 736.465 584.500 C 741.016 595.500, 748.214 613.050, 752.462 623.500 C 756.710 633.950, 760.790 643.850, 761.528 645.500 C 763.001 648.791, 772.883 672.842, 789.471 713.500 C 792.612 721.200, 796.533 730.763, 798.185 734.750 L 801.187 742 841.967 742 L 882.747 742 886.001 733.750 C 887.791 729.212, 890.049 723.700, 891.018 721.500 C 891.987 719.300, 897.354 706.250, 902.944 692.500 C 912.635 668.663, 915.737 661.125, 920.019 651 C 922.567 644.976, 928.496 630.556, 935.437 613.500 C 938.571 605.800, 942.191 597.025, 943.482 594 C 944.774 590.975, 949.944 578.375, 954.972 566 C 963.753 544.387, 966.887 536.770, 971.019 527 C 973.602 520.895, 979.573 506.368, 986.434 489.500 C 995.991 466.004, 996.721 464.528, 998.946 464.181 L 1000.993 463.862 1001.246 602.681 L 1001.500 741.500 1036.250 741.763 L 1071 742.026 1071 567.513 L 1071 393 1019.469 393 C 971.298 393, 967.896 393.114, 967.307 394.750 C 966.961 395.712, 963.771 403.475, 960.219 412 C 956.667 420.525, 946.098 445.950, 936.732 468.500 C 927.367 491.050, 917.367 515.125, 914.511 522 C 911.656 528.875, 904.956 545.075, 899.624 558 C 894.291 570.925, 888.184 585.550, 886.052 590.500 C 883.920 595.450, 878.283 608.950, 873.525 620.500 C 844.802 690.220, 844.694 690.460, 841.916 690.764 C 839.680 691.008, 839 689.814, 832.791 674.764 C 829.101 665.819, 819.714 643.200, 811.931 624.500 C 804.148 605.800, 794.451 582.400, 790.383 572.500 C 786.316 562.600, 782.567 553.600, 782.054 552.500 C 780.389 548.930, 770 523.861, 770 523.413 C 770 523.174, 769.135 521.071, 768.079 518.739 C 767.022 516.408, 762.345 505.275, 757.685 494 C 738.793 448.290, 731.760 431.355, 730.485 428.500 C 729.748 426.850, 726.131 418.188, 722.447 409.250 L 715.750 393 664.375 393 L 613 393 613 567.513 M 1151.462 394.250 C 1151.201 394.938, 1151.102 473.350, 1151.243 568.500 L 1151.500 741.500 1186.250 741.763 L 1221 742.026 1221 665.013 L 1221 588 1262.768 588 L 1304.536 588 1326.018 618.122 C 1337.833 634.690, 1348.793 650.102, 1350.374 652.372 C 1351.954 654.643, 1360.279 666.323, 1368.874 678.328 C 1377.468 690.334, 1385.173 701.134, 1385.995 702.328 C 1386.817 703.523, 1393.468 712.938, 1400.775 723.250 L 1414.059 742 1453.530 742 C 1475.238 742, 1493 741.653, 1493 741.228 C 1493 740.803, 1491.737 738.891, 1490.194 736.978 C 1487.835 734.053, 1456.336 690.176, 1437 662.880 C 1433.975 658.610, 1420.925 640.393, 1408 622.398 C 1395.075 604.403, 1381.907 586.039, 1378.738 581.590 C 1375.569 577.140, 1371.604 571.578, 1369.926 569.229 L 1366.875 564.958 1373.608 555.229 C 1377.312 549.878, 1381.927 543.250, 1383.864 540.500 C 1385.802 537.750, 1391.764 529.200, 1397.114 521.500 C 1402.464 513.800, 1408.257 505.475, 1409.987 503 C 1411.717 500.525, 1420.945 487.250, 1430.495 473.500 C 1440.044 459.750, 1449.267 446.475, 1450.990 444 C 1452.713 441.525, 1458.509 433.200, 1463.869 425.500 C 1469.230 417.800, 1476.397 407.450, 1479.798 402.500 L 1485.980 393.500 1447.893 393.238 L 1409.807 392.976 1407.711 395.640 C 1405.777 398.099, 1325.378 512.558, 1320.612 519.637 C 1319.450 521.363, 1314.225 528.896, 1309 536.378 L 1299.500 549.982 1260.250 549.991 L 1221 550 1221 471.500 L 1221 393 1186.469 393 C 1159.764 393, 1151.830 393.283, 1151.462 394.250 M 0.423 567.500 C 0.424 579.050, 0.570 583.638, 0.747 577.696 C 0.924 571.753, 0.923 562.303, 0.745 556.696 C 0.567 551.088, 0.422 555.950, 0.423 567.500"
                  stroke="none"
                  fill="#f4841c"
                  fill-rule="evenodd" />
      </svg>
