<svg xmlns="http://www.w3.org/2000/svg" viewBox="0 0 16 16" width="16" height="16" fill="none"><g clip-path="url(#a)"><path fill-rule="evenodd" clip-rule="evenodd" d="M4.562 11.755a3 3 0 0 0 4.243 0l2.121-2.121.943.942-2.121 2.122A4.333 4.333 0 1 1 3.619 6.57l4.007-4.007a3.333 3.333 0 1 1 4.714 4.714l-4.006 4.007a2.333 2.333 0 0 1-3.3-3.3l3.77-3.771.944.942-3.772 3.772a1 1 0 1 0 1.415 1.414l4.007-4.007a2 2 0 1 0-2.829-2.829L4.562 7.512a3 3 0 0 0 0 4.243Z" fill="currentColor"></path></g><defs><clipPath id="a"><path d="M0 0h16v16H0z"></path></clipPath></defs></svg>