<svg xmlns="http://www.w3.org/2000/svg" viewBox="0 0 82.42 14.47"><defs></defs><title>stars</title><g id="Слой_2" data-name="Слой 2"><g id="Слой_1-2" data-name="Слой 1"><path class="cls-1" d="M7.61,0,9.4,5.53h5.82L10.51,8.94l1.8,5.53-4.7-3.41-4.7,3.41L4.7,8.94,0,5.53H5.81Z"/><path class="cls-1" d="M58,0,59.8,5.53h5.82L60.91,8.94l1.8,5.53L58,11.06l-4.7,3.41L55.1,8.94,50.4,5.53h5.81Z"/><path class="cls-1" d="M41.21,0,43,5.53h5.82L44.11,8.94l1.8,5.53-4.7-3.41-4.7,3.41L38.3,8.94,33.6,5.53h5.81Z"/><path class="cls-1" d="M24.41,0,26.2,5.53H32L27.31,8.94l1.8,5.53-4.7-3.41-4.7,3.41L21.5,8.94,16.8,5.53h5.81Z"/><path class="cls-1" d="M74.81,0,76.6,5.53h5.82L77.71,8.94l1.8,5.53-4.7-3.41-4.7,3.41L71.9,8.94,67.2,5.53H73Z"/></g></g></svg>