
<svg width="30" height="30" viewBox="0 0 30 30" fill="none" xmlns="http://www.w3.org/2000/svg">
<g clip-path="url(#clip0)">
<path d="M26.067 6.433L19.817 0.183C19.759 0.124967 19.69 0.0789366 19.6142 0.0475372C19.5384 0.0161379 19.4571 -1.52919e-05 19.375 1.08626e-08H6.25C5.58712 0.000529678 4.95154 0.264092 4.48282 0.732818C4.01409 1.20154 3.75053 1.83712 3.75 2.5V27.5C3.75 28.879 4.871 30 6.25 30H23.75C25.129 30 26.25 28.879 26.25 27.5V6.875C26.2501 6.79291 26.2339 6.71161 26.2025 6.63577C26.1711 6.55992 26.1251 6.49102 26.067 6.433ZM20 2.133L24.116 6.25H21.25C20.56 6.25 20 5.69 20 5V2.134V2.133ZM25 27.5C25 28.189 24.44 28.75 23.75 28.75H6.25C5.561 28.75 5 28.189 5 27.5V2.5C5 1.811 5.561 1.25 6.25 1.25H18.75V5C18.75 6.379 19.871 7.5 21.25 7.5H25V27.5Z" fill="#303030"/>
<path d="M18.187 18.348C17.608 17.892 17.058 17.424 16.692 17.058C16.216 16.582 15.792 16.121 15.423 15.681C15.998 13.905 16.25 12.988 16.25 12.5C16.25 10.425 15.5 10 14.375 10C13.52 10 12.5 10.444 12.5 12.56C12.5 13.492 13.01 14.625 14.024 15.94C13.776 16.697 13.484 17.569 13.157 18.552C13 19.024 12.829 19.462 12.648 19.865C12.501 19.931 12.358 19.997 12.22 20.065C11.724 20.315 11.252 20.538 10.814 20.745C8.818 21.69 7.5 22.315 7.5 23.549C7.5 24.445 8.474 25 9.375 25C10.537 25 12.292 23.448 13.574 20.833C14.904 20.308 16.558 19.919 17.864 19.676C18.91 20.48 20.065 21.25 20.625 21.25C22.175 21.25 22.5 20.354 22.5 19.603C22.5 18.125 20.812 18.125 20 18.125C19.748 18.125 19.072 18.2 18.187 18.348ZM9.375 23.75C9.018 23.75 8.776 23.582 8.75 23.55C8.75 23.106 10.071 22.48 11.35 21.874L11.597 21.758C10.658 23.119 9.73 23.75 9.375 23.75ZM13.75 12.56C13.75 11.25 14.156 11.25 14.375 11.25C14.817 11.25 15 11.25 15 12.5C15 12.764 14.824 13.423 14.503 14.452C14.012 13.696 13.75 13.049 13.75 12.56ZM14.23 19.277C14.268 19.169 14.306 19.059 14.343 18.947L14.97 17.064C15.229 17.35 15.508 17.642 15.808 17.942C16.0655 18.1869 16.3306 18.4237 16.603 18.652C15.833 18.821 15.013 19.029 14.229 19.277H14.23ZM21.25 19.603C21.25 19.883 21.25 20 20.67 20.003C20.5 19.967 20.106 19.735 19.62 19.404C19.797 19.384 19.927 19.375 20 19.375C20.924 19.375 21.185 19.465 21.25 19.603Z" fill="#303030"/>
</g>
<defs>
<clipPath id="clip0">
<rect width="30" height="30" fill="white"/>
</clipPath>
</defs>
</svg>
